# xmcd
#
# Track frame offsets: 
#        150
#        23852
#        42442
#        62894
#        85762
#        112430
#        137776
#        159155
#        180351
#        202536
#        228096
#        250206
#        272238
#        295349
#        315557
#
# Disc length: 4492 seconds
#
# Revision: 0
# Processed by: cddbd v1.5.2PL0 Copyright (c) Steve Scherf et al.
# Submitted via: ExactAudioCopyFreeDBPlugin 1.0
#
DISCID=cc118a0f
DTITLE=阿丽娅 - [DTS ES  正品]【NRG】印象
DYEAR=2010
DGENRE=DTS ES
TTITLE0=心灵睡过的地方
TTITLE1=鸿雁
TTITLE2=诺恩吉雅
TTITLE3=马兰花
TTITLE4=母亲湖的泪水
TTITLE5=蒙古人
TTITLE6=牧歌
TTITLE7=送亲歌
TTITLE8=蓝色的蒙古高原
TTITLE9=成吉思汗的传说
TTITLE10=天空
TTITLE11=声声慢
TTITLE12=我爱你家乡
TTITLE13=新阿瓦尔古丽
TTITLE14=无人等候
EXTD=
EXTT0=
EXTT1=
EXTT2=
EXTT3=
EXTT4=
EXTT5=
EXTT6=
EXTT7=
EXTT8=
EXTT9=
EXTT10=
EXTT11=
EXTT12=
EXTT13=
EXTT14=
PLAYORDER=
